<svg width="784" height="301" viewBox="0 0 784 301" fill="none" xmlns="http://www.w3.org/2000/svg">
<path d="M735.581 16.1449C735.581 7.22831 742.75 0 751.594 0H767.606C776.449 0 783.617 7.22831 783.617 16.1449V87.1824C783.617 96.099 776.449 103.327 767.606 103.327H751.594C742.75 103.327 735.581 96.099 735.581 87.1824V16.1449Z" fill="#33FD7B"/>
<path d="M104.093 300.341C82.7055 300.341 64.2092 295.763 48.6044 286.605C33.0914 277.356 21.1124 264.499 12.6674 248.035C4.22248 231.478 0 212.285 0 190.456C0 168.442 4.22248 149.202 12.6674 132.738C21.1124 116.181 33.0914 103.324 48.6044 94.1671C64.2092 84.9175 82.7055 80.2927 104.093 80.2927C125.481 80.2927 143.931 84.9175 159.444 94.1671C175.049 103.324 187.074 116.181 195.519 132.738C203.964 149.202 208.186 168.442 208.186 190.456C208.186 212.285 203.964 231.478 195.519 248.035C187.074 264.499 175.049 277.356 159.444 286.605C143.931 295.763 125.481 300.341 104.093 300.341ZM104.369 254.556C114.099 254.556 122.222 251.781 128.74 246.231C135.257 240.589 140.168 232.911 143.472 223.199C146.869 213.487 148.567 202.434 148.567 190.039C148.567 177.645 146.869 166.592 143.472 156.88C140.168 147.167 135.257 139.49 128.74 133.848C122.222 128.206 114.099 125.385 104.369 125.385C94.5468 125.385 86.2854 128.206 79.5845 133.848C72.9754 139.49 67.9727 147.167 64.5764 156.88C61.2718 166.592 59.6195 177.645 59.6195 190.039C59.6195 202.434 61.2718 213.487 64.5764 223.199C67.9727 232.911 72.9754 240.589 79.5845 246.231C86.2854 251.781 94.5468 254.556 104.369 254.556Z" fill="#180A21"/>
<path d="M324.259 299.647C308.195 299.647 293.646 295.485 280.611 287.16C267.668 278.743 257.387 266.395 249.769 250.116C242.242 233.744 238.478 213.672 238.478 189.901C238.478 165.482 242.379 145.179 250.182 128.992C257.984 112.713 268.357 100.549 281.3 92.5022C294.334 84.3625 308.608 80.2927 324.121 80.2927C335.962 80.2927 345.83 82.3276 353.724 86.3974C361.71 90.3748 368.136 95.3696 373.001 101.382C377.958 107.302 381.721 113.129 384.291 118.864H386.081V12.0305H444.599V296.179H386.77V262.048H384.291C381.537 267.967 377.636 273.841 372.588 279.668C367.631 285.403 361.159 290.167 353.173 293.959C345.279 297.751 335.641 299.647 324.259 299.647ZM342.847 252.613C352.301 252.613 360.287 250.023 366.805 244.843C373.414 239.571 378.462 232.218 381.951 222.783C385.53 213.348 387.32 202.295 387.32 189.623C387.32 176.951 385.576 165.944 382.088 156.602C378.6 147.26 373.551 140.045 366.942 134.958C360.333 129.871 352.301 127.327 342.847 127.327C333.208 127.327 325.085 129.963 318.476 135.235C311.867 140.508 306.864 147.815 303.468 157.157C300.071 166.499 298.373 177.321 298.373 189.623C298.373 202.018 300.071 212.978 303.468 222.506C306.956 231.94 311.958 239.34 318.476 244.705C325.085 249.977 333.208 252.613 342.847 252.613Z" fill="#180A21"/>
<path d="M668.792 143.838L615.093 147.167C614.175 142.543 612.202 138.38 609.173 134.68C606.143 130.888 602.15 127.882 597.194 125.662C592.329 123.35 586.5 122.193 579.707 122.193C570.62 122.193 562.955 124.136 556.713 128.021C550.471 131.813 547.35 136.9 547.35 143.283C547.35 148.37 549.369 152.671 553.408 156.186C557.447 159.701 564.378 162.522 574.199 164.649L612.477 172.419C633.039 176.674 648.368 183.518 658.465 192.953C668.563 202.388 673.611 214.782 673.611 230.137C673.611 244.103 669.526 256.359 661.357 266.904C653.279 277.448 642.172 285.681 628.036 291.6C613.992 297.428 597.79 300.341 579.432 300.341C551.435 300.341 529.129 294.468 512.515 282.721C495.992 270.881 486.308 254.787 483.462 234.438L541.154 231.385C542.898 239.987 547.121 246.555 553.821 251.087C560.522 255.527 569.105 257.747 579.569 257.747C589.85 257.747 598.112 255.758 604.353 251.781C610.687 247.711 613.9 242.485 613.992 236.103C613.9 230.738 611.651 226.344 607.245 222.922C602.839 219.407 596.046 216.725 586.867 214.875L550.241 207.521C529.588 203.359 514.213 196.144 504.116 185.877C494.11 175.61 489.107 162.522 489.107 146.612C489.107 132.923 492.779 121.13 500.122 111.233C507.558 101.336 517.976 93.7046 531.378 88.3398C544.872 82.9751 560.66 80.2927 578.743 80.2927C605.455 80.2927 626.476 85.9812 641.805 97.3582C657.226 108.735 666.222 124.228 668.792 143.838Z" fill="#180A21"/>
</svg>
